# xmcd
#
# Track frame offsets:
#	150
#	16650
#	37050
#	51750
#	70050
#	88725
#	106875
#	122925
#	144600
#	166500
#	183825
#
# Disc length: 2691 seconds
#
# Revision: 1
# Processed by: cddbd v1.5.2PL0 Copyright (c) Steve Scherf et al.
# Submitted via: audiograbber 1.83.01
#
DISCID=8a0a810b
DTITLE=Meline - Himmelsmoment
DYEAR=2009
DGENRE=Christian Rock
TTITLE0=Meline - Himmelsmoment
TTITLE1=Meline - Halt mich fest
TTITLE2=Meline - Traumland
TTITLE3=Meline - Mein Heim
TTITLE4=Meline - Have Mercy
TTITLE5=Meline - Ich lass Dich nicht los
TTITLE6=Meline - Blessed to know the Lord
TTITLE7=Meline - Von allen Seiten
TTITLE8=Meline - Berühr mein Herz
TTITLE9=Meline - Bei Dir
TTITLE10=Meline - Es wäre umsonst
EXTD=
EXTT0=
EXTT1=
EXTT2=
EXTT3=
EXTT4=
EXTT5=
EXTT6=
EXTT7=
EXTT8=
EXTT9=
EXTT10=
PLAYORDER=
